<?xml version="1.0" encoding="UTF-8" standalone="no"?>
<svg
   xmlns:dc="http://purl.org/dc/elements/1.1/"
   xmlns:cc="http://creativecommons.org/ns#"
   xmlns:rdf="http://www.w3.org/1999/02/22-rdf-syntax-ns#"
   xmlns:svg="http://www.w3.org/2000/svg"
   xmlns="http://www.w3.org/2000/svg"
   id="svg4"
   xml:space="preserve"
   viewBox="0 0 1024 768"
   y="0px"
   x="0px"
   version="1.1"><metadata
     id="metadata10"><rdf:RDF><cc:Work
         rdf:about=""><dc:format>image/svg+xml</dc:format><dc:type
           rdf:resource="http://purl.org/dc/dcmitype/StillImage" /></cc:Work></rdf:RDF></metadata><defs
     id="defs8" /><path
     id="path2"
     d="m730.5 297.66v0.002l-0.002 0.002c-8.8386 0-16.971 1.1955-24.391 3.3496-7.6539 2.1534-14.152 5.2741-19.465 9.6172-5.5338 4.3308-9.8835 9.6411-12.783 15.914-3.1473 6.2947-4.5879 13.535-4.5879 21.686 0 6.6972 0.95256 12.504 3.3887 17.393 0.001 0.003 0.003 0.005 0.004 0.008 2.1915 4.8661 5.6001 9.001 9.9531 12.387 4.3498 3.3831 9.8747 6.2583 16.564 8.6484 0.001 0.00046 0.005 0.0009 0.006 0.002 0.002 0.00074 0.004 0.0009 0.006 0.002 6.4248 2.3792 14.037 4.7569 22.602 6.6602l-0.0215-0.004c7.5684 1.8921 14.425 3.7821 20.566 5.6719 6.1253 1.8847 11.042 3.7614 15.229 6.0859 3.9338 2.3151 6.9054 5.0684 8.957 8.2598 2.0527 3.1931 3.1856 6.7999 3.1856 11.4 0 8.3144-3.1494 14.365-9.5723 18.494-6.4378 4.1386-15.761 6.2656-27.506 6.2656-6.5934 0-12.685-0.47229-18.521-1.873-5.8922-1.4141-11.299-3.0594-16.463-5.1719-5.1673-2.1139-9.6092-4.4537-13.576-7.2539l-0.0137-0.01-0.0137-0.01c-3.9899-2.5817-7.242-5.1463-9.5273-7.8887l-0.76172-0.91407-11.111 19.639 0.5332 0.43946c9.5463 7.8757 20.059 13.849 31.758 17.908 11.702 4.0598 24.115 5.9668 37.223 5.9668 8.5733 0 16.695-0.71431 24.361-2.6309h0.006c7.4241-1.9159 13.914-4.7981 19.451-8.6504 5.56-3.8679 9.9101-8.9461 13.277-14.959l0.006-0.0117 0.006-0.0117c3.1479-6.0537 4.8301-13.294 4.8301-21.461 0-7.683-1.4407-14.21-4.1133-19.555-2.6681-5.3362-6.5566-9.7045-11.607-13.553l-0.01-0.008-0.01-0.006c-5.0428-3.602-11.043-6.7202-18.223-9.1133-7.122-2.374-14.966-4.7509-23.531-6.6543l-0.002-0.002h-0.002c-7.5662-1.6551-14.183-3.3085-19.6-4.957l-0.0176-0.006-0.0195-0.006c-5.6173-1.4043-10.042-3.2696-13.771-5.3672-3.6809-2.0705-6.1549-4.557-7.7344-7.4902l-0.0176-0.0332-0.0215-0.0332c-1.7605-2.6407-2.4668-6.2587-2.4668-10.914 0-8.3417 2.7171-14.661 8.6894-19.488 5.9516-4.5738 15.237-7.166 28.389-7.166 4.8961 0 9.5754 0.70022 14.287 1.6426 4.6749 0.93498 8.8846 2.3374 12.875 3.9805h0.002c3.7364 1.6356 7.2476 3.5097 10.537 5.3887 3.0309 2.101 5.5805 4.1928 7.4004 6.2402l0.75976 0.85351 0.56836-0.98828 10.301-17.904-0.55078-0.44141c-7.176-5.7408-15.536-10.516-24.609-14.098l-0.0137-0.01-0.0117-0.004c-9.3255-3.3476-19.611-5.2598-31.072-5.2598zm-500.6 1.1875v169.83h22.965v-127.72l36.123 64.521 1.4277 0.0137 11.607-19.83-48.314-86.82zm144.84 0-0.23437 0.42187-61.113 109.2-11.363 19.826 5.6758 10.064h13.043l54.6-97.398v127.72h22.965v-169.83zm102.11 0v131.93h22.965v-111.81h54.133c3.1906 0 6.38 0.68302 9.3438 2.0469 3.003 1.6195 5.5133 3.45 7.5605 5.7207 2.0508 2.5106 3.6676 5.5054 5.0645 8.7598 1.1533 3.4705 1.8438 7.1626 1.8438 10.838 0 3.9302-0.68787 7.3602-2.0645 10.572-1.4027 3.2729-3.021 6.2553-5.2734 8.5078l-0.0156 0.0137-0.0117 0.0137c-2.3143 2.5458-4.8302 4.5968-7.7812 5.9609-3.2088 1.3733-6.6485 2.0605-10.088 2.0605h-33.037v18.938h39.67c3.6384 0 6.8186 0.90332 10.061 2.2891 2.9728 1.6053 5.4888 3.6611 7.7949 6.1953 2.2962 2.7591 3.9089 5.7438 5.3066 9.2383 1.3862 3.4654 2.0723 6.9045 2.0723 10.592 0 3.683-0.6927 7.3641-2.0606 10.561-1.6287 3.4878-3.4765 6.4817-5.7656 9.0039-2.5325 2.5294-5.534 4.6072-8.5137 5.9824l-0.0117 0.006-0.0117 0.004c-3.1762 1.5881-6.842 2.2832-10.529 2.2832h-80.64v20.121h80.65c6.701 0 13.182-0.95635 19.201-3.1191l0.006-0.002c6.0332-1.9313 11.339-5.0667 15.91-8.916 4.583-3.8593 8.2159-8.4619 10.871-14.014 2.6594-5.324 4.1074-11.377 4.1074-18.121 0-10.572-2.8977-19.773-8.6914-27.498-5.4198-7.2264-12.629-12.476-21.439-15.498 6.9299-3.4317 12.488-8.6231 16.506-15.316l0.004-0.006c4.344-7.0012 6.5156-14.978 6.5156-23.641 0-5.311-0.97019-10.393-2.8926-15.68-1.9258-5.296-4.5762-9.873-7.6992-13.957l-0.0117-0.0117-0.01-0.0117c-3.3831-4.1081-7.495-7.4936-12.318-10.146l-0.0156-0.008-0.0137-0.008c-4.8455-2.4228-10.416-3.877-16.238-3.877z"
     fill="#ffffff" /></svg>